# xmcd
#
# Track frame offsets:
#	150
#	16202
#	39249
#	69606
#	77367
#	107132
#	125710
#	154800
#	191324
#
# Disc length: 2872 seconds
#
# Revision: 0
# Processed by: cddbd v1.5.2PL0 Copyright (c) Steve Scherf et al.
# Submitted via: audiograbber 1.83.01
#
DISCID=680b3609
DTITLE=GoldRush - Live at Last!
DYEAR=1980
DGENRE=
TTITLE0=White Russia
TTITLE1=Sweet Elise
TTITLE2=Cactus
TTITLE3=Tff
TTITLE4=Desert Wind
TTITLE5=Keep in Touch
TTITLE6=Duelling Banjos
TTITLE7=Sweet Home Alabama
TTITLE8=Dixie Breakdown
EXTD=
EXTT0=
EXTT1=
EXTT2=
EXTT3=
EXTT4=
EXTT5=
EXTT6=
EXTT7=
EXTT8=
PLAYORDER=
